<?xml version="1.0" encoding="UTF-8" standalone="no"?>
<svg
   width="32"
   height="32"
   version="1.1"
   viewBox="0 0 32 32"
   id="svg39"
   sodipodi:docname="icon-white.svg"
   xml:space="preserve"
   inkscape:version="1.4 (86a8ad7, 2024-10-11)"
   xmlns:inkscape="http://www.inkscape.org/namespaces/inkscape"
   xmlns:sodipodi="http://sodipodi.sourceforge.net/DTD/sodipodi-0.dtd"
   xmlns="http://www.w3.org/2000/svg"
   xmlns:svg="http://www.w3.org/2000/svg"><defs
     id="defs39"><style
       id="style1">.cls-1{fill:#608d33;}</style></defs><sodipodi:namedview
     id="namedview39"
     pagecolor="#ffffff"
     bordercolor="#000000"
     borderopacity="0.25"
     inkscape:showpageshadow="2"
     inkscape:pageopacity="0.0"
     inkscape:pagecheckerboard="0"
     inkscape:deskcolor="#d1d1d1"
     showguides="true"
     inkscape:zoom="25.21875"
     inkscape:cx="16"
     inkscape:cy="9.6555143"
     inkscape:window-width="1920"
     inkscape:window-height="1009"
     inkscape:window-x="1912"
     inkscape:window-y="-8"
     inkscape:window-maximized="1"
     inkscape:current-layer="svg39" /><title
     id="title1">GestorPass</title><path
     class="cls-1"
     d="M 16.041418,0.48183917 A 15.677042,15.677042 0 0 0 3.9130091,26.093712 L 7.6427633,22.363958 A 9.8274996,9.8274996 0 0 1 5.3686866,16.011301 c 0,-5.608048 4.7762314,-10.0019128 10.8806854,-10.0019128 a 10.920934,10.920934 0 0 1 9.391467,5.3665528 H 20.535906 A 5.9166243,5.9166243 0 0 0 16.249372,9.7793922 6.5069451,6.5069451 0 0 0 10.91636,12.462667 6.9631021,6.9631021 0 0 0 9.7960925,15.910678 7.063725,7.063725 0 0 0 10.037587,17.768847 c 0.758026,2.89123 3.07906,4.615235 6.211785,4.615235 3.132725,0 5.433635,-1.730713 5.943457,-4.63536 l 0.05366,-0.29516 h -5.554382 v -3.213224 h 9.921415 a 9.3445097,9.3445097 0 0 1 0.248203,2.086247 c 0,5.514134 -4.695734,9.8275 -10.652607,9.8275 A 11.772875,11.772875 0 0 1 10.607784,24.778906 L 6.6633674,28.723322 A 15.677042,15.677042 0 1 0 16.041418,0.48183917 Z"
     id="path1-2"
     style="stroke-width:0.670819" /></svg>
